<mxfile host="65bd71144e">
    <diagram id="nHEtW4FP4hMCNkiHZmpN" name="Page-1">
        <mxGraphModel dx="817" dy="562" grid="1" gridSize="10" guides="1" tooltips="1" connect="1" arrows="1" fold="1" page="1" pageScale="1" pageWidth="1600" pageHeight="1200" math="0" shadow="0">
            <root>
                <mxCell id="0"/>
                <mxCell id="1" parent="0"/>
                <mxCell id="neOlEgzj9j33T5texWGZ-4" value="" style="rounded=0;whiteSpace=wrap;html=1;fillColor=#dae8fc;strokeColor=#6c8ebf;" parent="1" vertex="1">
                    <mxGeometry x="160" y="140" width="410" height="260" as="geometry"/>
                </mxCell>
                <mxCell id="neOlEgzj9j33T5texWGZ-2" value="Nginx&lt;br&gt;jonasal/nginx-certbot:xyz" style="rounded=0;whiteSpace=wrap;html=1;" parent="1" vertex="1">
                    <mxGeometry x="200" y="200" width="150" height="70" as="geometry"/>
                </mxCell>
                <mxCell id="neOlEgzj9j33T5texWGZ-5" value="db&lt;br&gt;postgres:xyz" style="rounded=0;whiteSpace=wrap;html=1;" parent="1" vertex="1">
                    <mxGeometry x="380" y="290" width="140" height="60" as="geometry"/>
                </mxCell>
                <mxCell id="neOlEgzj9j33T5texWGZ-8" value="" style="ellipse;whiteSpace=wrap;html=1;" parent="1" vertex="1">
                    <mxGeometry x="260" y="120" width="30" height="30" as="geometry"/>
                </mxCell>
                <mxCell id="neOlEgzj9j33T5texWGZ-9" value="" style="endArrow=none;html=1;entryX=0.5;entryY=1;entryDx=0;entryDy=0;exitX=0.5;exitY=0;exitDx=0;exitDy=0;" parent="1" source="neOlEgzj9j33T5texWGZ-2" target="neOlEgzj9j33T5texWGZ-8" edge="1">
                    <mxGeometry width="50" height="50" relative="1" as="geometry">
                        <mxPoint x="270" y="290" as="sourcePoint"/>
                        <mxPoint x="270" y="240" as="targetPoint"/>
                    </mxGeometry>
                </mxCell>
                <mxCell id="neOlEgzj9j33T5texWGZ-10" value="Ghost&lt;br&gt;ghost:xyz" style="rounded=0;whiteSpace=wrap;html=1;" parent="1" vertex="1">
                    <mxGeometry x="380" y="200" width="140" height="70" as="geometry"/>
                </mxCell>
                <mxCell id="2" value="backup&lt;br&gt;bennetimo/ghost-backup" style="rounded=0;whiteSpace=wrap;html=1;" vertex="1" parent="1">
                    <mxGeometry x="200" y="290" width="150" height="60" as="geometry"/>
                </mxCell>
            </root>
        </mxGraphModel>
    </diagram>
</mxfile>